<?xml version="1.0" standalone="no"?>
<!DOCTYPE svg PUBLIC "-//W3C//DTD SVG 20010904//EN"
 "http://www.w3.org/TR/2001/REC-SVG-20010904/DTD/svg10.dtd">
<svg version="1.0" xmlns="http://www.w3.org/2000/svg"
 width="500.000000pt" height="500.000000pt" viewBox="0 0 500.000000 500.000000"
 preserveAspectRatio="xMidYMid meet">

<g transform="translate(0.000000,500.000000) scale(0.100000,-0.100000)"
fill="#000000" stroke="none">
<path d="M0 2500 l0 -2500 2500 0 2500 0 0 2500 0 2500 -2500 0 -2500 0 0
-2500z m3361 1434 c78 -15 183 -55 238 -91 23 -15 23 -17 7 -28 -10 -7 -17
-16 -17 -19 3 -21 0 -26 -11 -20 -6 4 -8 3 -4 -4 3 -6 -1 -18 -10 -26 -8 -9
-12 -16 -7 -16 4 0 0 -5 -9 -11 -10 -5 -18 -15 -18 -22 0 -7 -9 -18 -21 -25
-14 -9 -18 -19 -13 -34 5 -15 3 -20 -7 -16 -8 3 -23 -6 -34 -21 -15 -20 -15
-23 -2 -12 24 19 21 9 -7 -24 -14 -16 -23 -33 -20 -37 3 -5 0 -7 -8 -6 -8 2
-12 -5 -10 -21 1 -14 -1 -22 -4 -18 -9 9 -64 -52 -64 -70 0 -7 -5 -13 -11 -13
-5 0 -7 -4 -4 -10 3 -5 1 -10 -4 -10 -6 0 -11 -7 -11 -15 0 -9 -7 -18 -15 -21
-8 -4 -13 -10 -10 -14 3 -4 -2 -10 -10 -14 -8 -3 -15 -12 -15 -20 0 -8 -9 -22
-21 -30 -13 -9 -18 -19 -14 -27 5 -8 4 -10 -3 -5 -11 6 -14 1 -11 -21 0 -4 -7
-10 -16 -13 -9 -3 -16 -9 -15 -14 1 -4 -11 -21 -27 -38 -23 -24 -24 -28 -8
-22 18 6 17 4 -2 -10 -13 -10 -23 -24 -23 -32 0 -9 -16 -30 -35 -47 -19 -17
-35 -39 -35 -49 0 -11 -4 -17 -9 -14 -5 4 -7 -3 -4 -14 3 -12 0 -20 -6 -20 -7
0 -10 -4 -7 -9 3 -4 -6 -13 -21 -20 -17 -8 -23 -15 -16 -22 7 -7 26 -2 58 15
26 15 57 26 69 25 18 -1 18 -2 -4 -8 -57 -18 -129 -62 -164 -102 -64 -70 -88
-136 -97 -263 l-7 -111 0 110 c1 61 0 114 -1 118 -3 20 -31 -24 -31 -50 0 -19
-3 -24 -9 -15 -6 11 -10 10 -15 -4 -4 -11 -2 -20 3 -22 19 -6 12 -20 -7 -15
-10 2 -25 -3 -33 -13 -12 -16 -12 -17 1 -10 8 4 6 0 -4 -8 -11 -9 -16 -16 -12
-16 5 0 -3 -9 -17 -20 -18 -14 -24 -26 -19 -42 4 -15 2 -19 -7 -14 -8 5 -14 0
-18 -13 -3 -12 -9 -21 -14 -21 -5 0 -6 -7 -3 -15 4 -8 1 -15 -6 -15 -6 0 -8
-4 -5 -10 3 -6 -1 -7 -9 -4 -11 4 -16 0 -16 -10 0 -9 -4 -16 -10 -16 -5 0 -12
-11 -16 -25 -3 -14 -10 -25 -15 -25 -5 0 -9 -9 -9 -20 0 -11 -7 -20 -15 -20
-8 0 -14 -3 -14 -7 1 -5 1 -15 0 -23 -1 -12 -3 -12 -10 -2 -6 10 -10 8 -14 -8
-4 -16 -2 -20 9 -16 9 3 12 1 9 -4 -3 -6 -15 -10 -26 -10 -10 0 -19 -7 -19
-15 0 -8 -5 -15 -11 -15 -5 0 -8 -4 -4 -9 3 -5 0 -13 -7 -18 -8 -4 39 -10 107
-13 81 -4 23 -7 -177 -8 l-298 -2 0 -85 0 -85 228 -2 c199 -2 211 -3 102 -8
-69 -3 -119 -7 -111 -8 10 -1 7 -8 -9 -22 -13 -11 -20 -20 -15 -20 4 0 -4 -9
-18 -20 -14 -11 -28 -33 -32 -49 -3 -15 -15 -38 -25 -49 -11 -12 -20 -28 -20
-36 0 -13 -26 -31 -42 -28 -3 1 -5 -6 -4 -15 2 -8 -8 -27 -21 -41 -12 -13 -20
-28 -17 -33 2 -5 -6 -18 -20 -30 -14 -12 -23 -26 -20 -31 3 -4 0 -8 -6 -8 -7
0 -9 -7 -6 -16 6 -15 4 -15 -11 -3 -13 11 -15 11 -9 1 5 -9 0 -21 -13 -33 -12
-11 -21 -25 -21 -31 0 -6 -8 -17 -17 -25 -10 -8 -12 -11 -4 -7 9 5 7 -2 -5
-18 -10 -14 -23 -23 -29 -20 -5 3 -7 2 -3 -3 7 -8 -26 -63 -47 -77 -5 -4 -6
-8 -2 -8 5 0 1 -7 -7 -16 -9 -8 -14 -19 -11 -24 3 -5 1 -11 -5 -15 -6 -4 -7
-11 -4 -17 4 -7 2 -8 -5 -4 -9 6 -9 12 0 24 12 15 11 16 -4 2 -9 -8 -18 -26
-20 -40 -2 -14 -8 -24 -13 -23 -5 1 -12 -7 -16 -18 -4 -11 -12 -17 -18 -14 -6
4 -10 3 -9 -2 3 -19 -3 -32 -30 -60 -28 -29 -30 -30 -92 -22 -269 36 -496 227
-587 494 l-27 80 0 865 0 865 23 70 c43 129 89 203 187 300 64 65 110 101 160
127 67 34 173 72 225 81 14 2 386 5 826 6 692 1 813 -1 885 -15z m-271 -914
c0 -5 -5 -10 -11 -10 -5 0 -7 5 -4 10 3 6 8 10 11 10 2 0 4 -4 4 -10z m128
-87 c-10 -2 -26 -2 -35 0 -10 3 -2 5 17 5 19 0 27 -2 18 -5z m167 -33 c3 -6
-1 -7 -9 -4 -18 7 -21 14 -7 14 6 0 13 -4 16 -10z m-274 -178 c-20 -20 -38
-36 -40 -34 -6 3 61 72 70 72 4 0 -9 -17 -30 -38z m-64 -214 c-2 -18 -4 -4 -4
32 0 36 2 50 4 33 2 -18 2 -48 0 -65z m-327 -38 c0 -5 -2 -10 -4 -10 -3 0 -8
5 -11 10 -3 6 -1 10 4 10 6 0 11 -4 11 -10z m169 -140 c11 -24 11 -24 -3 -6
-9 11 -16 24 -16 30 0 12 5 7 19 -24z m-612 -505 c0 -8 -4 -12 -9 -9 -5 3 -6
10 -3 15 9 13 12 11 12 -6z"/>
<path d="M1720 2917 c-72 -17 -127 -47 -172 -94 -136 -140 -136 -436 0 -576
125 -131 367 -138 506 -16 28 25 58 66 78 107 32 65 33 71 33 192 0 108 -3
133 -24 185 -62 155 -245 243 -421 202z m156 -156 c74 -33 107 -106 106 -232
-1 -167 -90 -260 -220 -227 -87 22 -139 129 -129 264 12 166 119 251 243 195z"/>
<path d="M2964 2864 c-18 -14 -18 -15 4 -4 12 6 22 13 22 15 0 8 -5 6 -26 -11z"/>
<path d="M2880 2760 c-6 -11 -8 -20 -6 -20 3 0 10 9 16 20 6 11 8 20 6 20 -3
0 -10 -9 -16 -20z"/>
</g>
</svg>
